<?xml version="1.0" standalone="no"?>
<!DOCTYPE svg PUBLIC "-//W3C//DTD SVG 20010904//EN"
 "http://www.w3.org/TR/2001/REC-SVG-20010904/DTD/svg10.dtd">
<svg version="1.0" xmlns="http://www.w3.org/2000/svg"
 width="200px" height="200px" viewBox="0 0 1664.000000 493.000000"
 preserveAspectRatio="xMidYMid meet">

<g transform="translate(0.000000,493.000000) scale(0.100000,-0.100000)"
fill="#FFFF" stroke="none">
<path d="M2225 4890 c-109 -12 -321 -56 -425 -87 -395 -119 -731 -321 -1025
-617 -266 -268 -457 -578 -574 -933 -84 -256 -121 -491 -120 -768 0 -200 10
-303 29 -315 8 -6 42 -10 75 -10 252 0 681 -127 1035 -305 373 -187 669 -405
863 -635 121 -143 279 -394 360 -573 38 -85 71 -73 107 37 30 94 142 294 215
385 41 52 75 97 75 101 0 4 51 59 113 122 386 393 956 699 1528 822 91 19 217
40 279 46 63 6 116 13 119 16 13 12 24 162 25 314 0 360 -86 731 -248 1064
-229 470 -620 865 -1077 1089 -252 123 -442 185 -724 234 -98 16 -518 25 -630
13z m467 -339 c127 -53 285 -120 518 -221 41 -18 102 -45 135 -60 33 -15 125
-55 205 -89 362 -154 488 -221 528 -281 38 -56 28 -78 -58 -128 -92 -55 -418
-225 -468 -245 -102 -41 -355 -161 -792 -377 -52 -26 -132 -63 -176 -83 -97
-44 -45 -60 -447 137 -161 78 -356 173 -434 211 l-143 69 0 97 0 97 83 -35
c45 -19 154 -70 242 -113 254 -124 516 -250 570 -275 l50 -23 135 67 c156 77
677 323 860 406 69 32 159 74 200 95 41 21 83 40 93 44 31 10 18 27 -40 53
-157 70 -464 202 -598 258 -82 34 -170 72 -194 84 -56 29 -171 79 -339 146
l-132 54 -68 -31 c-37 -17 -125 -56 -197 -88 -71 -32 -195 -87 -275 -122 -80
-36 -183 -81 -230 -101 -47 -20 -139 -61 -205 -90 l-120 -54 -5 -351 c-5 -325
-6 -351 -24 -371 -20 -23 -74 -36 -103 -27 -10 4 -29 15 -43 26 l-25 19 -5
221 -5 221 -134 58 c-74 32 -139 65 -145 73 -6 11 -7 30 0 55 9 37 12 40 199
134 179 91 425 207 525 249 206 87 270 115 370 161 63 29 192 85 285 126 207
88 206 88 407 4z m1492 -1462 c40 -32 48 -53 36 -98 -9 -35 -16 -41 -58 -56
-237 -83 -478 -191 -652 -293 -364 -213 -533 -363 -835 -737 -171 -213 -181
-219 -245 -153 -23 24 -60 68 -83 98 -298 394 -500 572 -932 822 -181 105
-193 111 -510 233 -150 58 -180 104 -107 165 33 29 42 31 87 26 131 -13 487
-172 730 -326 279 -177 335 -219 498 -379 85 -83 149 -157 325 -378 49 -63 46
-65 152 73 130 168 350 390 495 498 240 179 642 387 919 477 50 16 102 33 116
38 36 13 35 13 64 -10z m-3510 -480 c187 -47 279 -76 426 -136 358 -146 674
-333 902 -537 149 -133 211 -207 378 -454 46 -68 89 -126 96 -129 24 -9 53 18
98 94 161 266 364 479 653 681 305 212 671 379 1024 465 265 65 351 72 389 32
21 -23 22 -28 11 -62 -20 -67 -25 -69 -212 -107 -293 -59 -599 -171 -840 -306
-422 -237 -708 -505 -981 -920 -77 -117 -130 -175 -151 -167 -10 4 -35 35 -56
69 -157 251 -228 349 -385 526 -141 159 -246 243 -519 416 -227 143 -661 318
-922 371 -214 43 -212 42 -229 86 -21 51 -20 61 6 94 21 27 22 27 106 21 46
-4 139 -21 206 -37z"/>
<path d="M7126 4135 c-4 -11 -23 -15 -80 -15 -41 0 -78 -4 -81 -10 -3 -5 -19
-10 -35 -10 -16 0 -39 -4 -52 -9 -13 -5 -43 -14 -68 -21 -25 -7 -62 -21 -83
-31 -22 -10 -47 -19 -56 -19 -9 0 -21 -4 -27 -9 -5 -5 -26 -14 -48 -21 -41
-13 -190 -96 -237 -133 -125 -95 -260 -234 -324 -333 -24 -38 -49 -74 -54 -81
-15 -17 -91 -176 -91 -190 0 -7 -9 -28 -20 -48 -11 -20 -20 -44 -20 -55 0 -10
-4 -22 -10 -25 -5 -3 -10 -17 -10 -30 0 -13 -4 -26 -9 -29 -5 -3 -11 -20 -14
-38 -3 -18 -11 -53 -17 -78 -7 -25 -14 -69 -17 -98 -3 -33 -10 -55 -19 -59
-22 -8 -21 -428 1 -437 10 -3 15 -19 15 -42 0 -21 4 -51 9 -68 5 -17 15 -51
21 -76 7 -25 16 -53 21 -62 5 -10 9 -24 9 -31 0 -12 39 -99 73 -162 6 -11 19
-37 29 -58 28 -57 83 -139 107 -161 11 -11 21 -24 21 -30 0 -13 271 -286 284
-286 4 0 25 -15 46 -33 21 -17 96 -61 166 -96 185 -93 204 -101 224 -101 11 0
21 -4 24 -9 3 -5 20 -12 38 -15 18 -4 56 -12 83 -17 28 -6 89 -13 138 -16 48
-2 87 -9 87 -14 0 -5 20 -9 45 -9 25 0 45 5 45 10 0 6 35 10 84 10 47 0 88 5
91 10 3 6 26 10 50 10 24 0 47 5 50 10 3 6 21 10 39 10 17 0 36 4 41 8 6 5 30
15 55 22 105 32 264 108 365 175 79 53 244 212 280 269 12 21 18 50 19 96 0
64 -2 69 -39 115 -50 59 -72 80 -132 128 -26 20 -64 50 -83 65 -86 68 -140 92
-211 92 -44 0 -79 -20 -79 -46 0 -46 -267 -204 -345 -204 -13 0 -26 -4 -29 -9
-3 -4 -47 -11 -98 -14 -95 -6 -197 2 -278 23 -25 6 -52 12 -60 14 -56 10 -234
124 -267 172 -10 14 -28 38 -40 53 -31 39 -117 216 -132 271 -7 25 -17 59 -22
76 -12 40 -12 318 0 358 5 17 20 65 32 106 28 92 79 198 109 225 12 11 28 32
36 47 13 25 131 121 183 148 78 41 242 72 376 73 143 0 278 -36 376 -101 14
-9 39 -26 55 -36 16 -11 45 -35 66 -54 36 -34 36 -34 131 -34 80 1 102 4 139
24 69 37 116 75 226 182 l102 101 0 61 c0 79 -23 125 -109 216 -54 58 -140
128 -157 128 -2 0 -23 12 -47 27 -50 33 -206 113 -219 113 -5 0 -28 9 -50 20
-23 11 -52 20 -65 20 -13 0 -31 4 -41 9 -61 31 -101 40 -205 48 -46 3 -70 9
-74 19 -8 21 -228 20 -237 -1z"/>
<path d="M9080 4110 c-8 -5 -24 -10 -36 -10 -11 0 -29 -9 -39 -20 -10 -11 -23
-20 -29 -20 -17 0 -91 -87 -115 -133 -19 -39 -21 -64 -26 -347 -9 -463 -10
-2160 -1 -2200 14 -66 51 -125 122 -195 49 -47 85 -74 113 -82 52 -16 1656
-19 1666 -3 3 6 14 10 24 10 55 0 160 99 205 194 26 55 27 65 24 175 -3 116
-3 117 -41 174 -21 31 -44 57 -51 57 -8 0 -19 7 -26 15 -22 27 -73 45 -126 45
-29 0 -56 5 -59 10 -4 6 -204 10 -566 10 l-561 0 7 63 c4 34 8 151 8 260 l2
197 119 -4 c66 -3 123 -3 128 0 5 3 170 5 368 4 l359 -1 58 30 c97 49 158 132
175 235 5 28 11 65 14 82 4 18 1 35 -5 38 -6 4 -11 20 -11 35 0 42 -23 80 -87
142 -95 92 -74 89 -642 89 l-493 0 7 48 c3 26 8 130 11 232 l5 185 567 1 c312
1 587 5 612 9 53 9 80 25 138 79 54 51 83 105 95 176 24 153 -2 248 -91 333
-34 33 -117 77 -143 77 -10 0 -21 5 -24 10 -8 13 -1634 13 -1655 0z"/>
<path d="M11725 4108 c-16 -6 -41 -16 -54 -22 -41 -18 -146 -131 -169 -180
l-22 -46 0 -1255 c0 -1232 0 -1257 20 -1295 36 -71 80 -128 117 -152 110 -71
101 -68 214 -68 108 0 163 15 212 58 9 8 17 11 17 6 0 -4 23 14 50 41 28 27
50 54 50 61 0 6 9 19 20 29 11 10 20 28 20 41 0 13 5 26 10 29 6 4 10 117 10
305 l0 299 248 5 c240 4 355 13 437 34 100 26 184 52 230 71 72 31 135 64 145
76 7 8 17 15 23 15 5 0 17 8 26 18 9 9 36 33 61 52 77 60 138 136 226 281 62
103 72 125 96 209 35 125 46 250 36 415 -8 141 -17 203 -29 211 -5 3 -9 16 -9
30 0 27 -83 197 -129 265 -34 51 -216 234 -252 254 -13 8 -76 39 -139 71 -63
31 -123 61 -132 65 -10 5 -25 9 -33 9 -8 0 -23 4 -33 9 -29 14 -87 31 -110 31
-11 0 -24 5 -27 10 -3 6 -33 10 -65 10 -32 0 -62 5 -65 10 -9 14 -959 11
-1000 -2z m955 -703 c25 -4 49 -11 54 -16 6 -5 18 -9 28 -9 19 0 105 -45 126
-66 7 -8 21 -19 31 -26 23 -17 73 -93 94 -143 20 -49 25 -152 9 -182 -7 -12
-12 -28 -12 -35 0 -29 -61 -135 -97 -169 -50 -48 -153 -95 -228 -105 -33 -4
-150 -7 -260 -8 l-200 -1 -3 388 -2 388 207 -4 c115 -3 228 -8 253 -12z"/>
<path d="M15080 4111 c-8 -4 -33 -17 -55 -27 -46 -22 -115 -81 -115 -98 0 -7
-15 -27 -33 -44 -31 -30 -54 -74 -126 -239 -17 -38 -41 -94 -55 -127 -14 -32
-26 -63 -26 -70 0 -6 -9 -29 -19 -51 -11 -22 -29 -65 -42 -95 -12 -30 -39 -92
-61 -137 -21 -44 -38 -85 -38 -90 0 -4 -18 -45 -40 -91 -22 -45 -40 -86 -40
-92 0 -5 -11 -33 -24 -62 -65 -142 -86 -190 -86 -197 0 -4 -9 -26 -20 -49 -11
-22 -20 -45 -20 -51 0 -5 -8 -26 -19 -48 -10 -21 -29 -60 -41 -88 -12 -27 -31
-67 -41 -88 -11 -22 -19 -45 -19 -52 0 -7 -10 -33 -21 -57 -12 -23 -25 -52
-30 -63 -4 -11 -24 -54 -43 -96 -20 -42 -36 -80 -36 -86 0 -5 -9 -28 -20 -51
-11 -22 -20 -45 -20 -51 0 -5 -13 -36 -30 -68 -16 -31 -30 -63 -30 -69 0 -6
-18 -46 -40 -89 -22 -43 -40 -83 -40 -90 0 -6 -8 -27 -17 -46 -10 -19 -23 -50
-30 -69 -15 -42 -17 -156 -3 -165 6 -3 10 -13 10 -20 0 -18 61 -114 86 -136
11 -9 41 -28 67 -43 41 -23 59 -26 137 -26 49 0 92 5 95 10 3 6 14 10 24 10
26 0 115 47 141 75 13 14 27 25 32 25 14 0 51 41 92 99 39 57 80 139 156 311
l46 105 40 -4 c77 -7 910 -4 947 4 l37 7 31 -68 c56 -127 87 -199 100 -234 13
-34 120 -202 142 -224 23 -22 102 -72 152 -95 45 -21 59 -23 144 -17 71 4 106
12 145 31 79 39 110 60 122 83 6 12 18 30 27 40 10 10 17 24 17 30 0 7 5 12
10 12 13 0 13 184 1 208 -11 20 -52 110 -76 167 -9 22 -30 67 -46 99 -16 32
-29 64 -29 71 0 7 -13 39 -30 70 -16 31 -30 62 -30 69 0 7 -11 36 -25 64 -14
29 -25 56 -25 61 0 5 -13 35 -30 66 -16 31 -30 63 -30 70 0 7 -13 39 -30 70
-16 31 -30 62 -30 69 0 6 -18 47 -40 91 -22 44 -40 87 -40 96 0 8 -4 19 -8 25
-5 5 -17 29 -26 54 -20 52 -36 87 -82 189 -19 40 -34 77 -34 82 0 5 -13 37
-30 71 -16 34 -30 65 -30 70 0 5 -18 46 -40 93 -22 47 -40 87 -40 90 0 4 -13
34 -29 68 -52 112 -71 157 -71 166 0 5 -15 42 -34 82 -39 87 -63 144 -105 254
-17 44 -41 96 -54 114 -12 19 -27 42 -32 52 -29 47 -139 129 -174 129 -11 0
-23 5 -26 10 -7 12 -223 13 -245 1z m149 -1153 c12 -29 31 -70 42 -91 10 -22
19 -47 19 -57 0 -11 5 -22 10 -25 6 -3 10 -17 10 -30 0 -13 5 -27 10 -30 6 -3
10 -13 10 -21 0 -8 8 -33 18 -57 16 -36 80 -224 90 -265 3 -10 -46 -12 -240
-10 l-243 3 3 25 c2 14 7 34 12 45 27 62 80 202 80 211 0 6 9 29 20 52 11 22
20 46 20 51 0 6 9 26 20 46 11 20 20 40 20 45 0 6 8 29 19 53 10 23 24 57 31
75 7 17 16 32 19 32 4 0 18 -24 30 -52z"/>
<path d="M140 1964 c0 -34 48 -205 91 -324 78 -213 225 -471 379 -664 126
-159 355 -369 525 -483 399 -267 883 -416 1355 -416 546 0 1079 188 1510 532
387 308 674 740 809 1216 17 61 31 124 31 139 l0 29 -83 -6 c-404 -31 -857
-202 -1282 -483 -432 -285 -735 -665 -875 -1097 -46 -139 -59 -157 -122 -157
-43 0 -61 20 -83 92 -34 111 -141 351 -202 451 -211 347 -415 546 -791 773
-378 229 -823 385 -1194 420 l-68 7 0 -29z"/>
</g>
</svg>
